<svg version="1.1" xmlns="http://www.w3.org/2000/svg" xmlns:xlink="http://www.w3.org/1999/xlink" width="1809" height="797"><defs/><g><g transform="translate(-174,-310) scale(1,1)"><rect fill="#C0C0C0" stroke="none" x="887" y="335" width="382" height="265" opacity="0.2"/></g><g transform="translate(-174,-310) scale(1,1)"><rect fill="#ffffff" stroke="none" x="880" y="328" width="382" height="265"/></g><g transform="translate(-174,-310) scale(1,1)"><path fill="none" stroke="#000000" d="M 880 328 L 1262 328 L 1262 593 L 880 593 L 880 328 Z Z" stroke-miterlimit="10"/></g><g transform="translate(-174,-310) scale(1,1)"><path fill="none" stroke="#000000" d="M 880 368 L 1262 368" stroke-miterlimit="10"/></g><g transform="translate(-174,-310) scale(1,1)"><path fill="none" stroke="#000000" d="M 880 436 L 1262 436" stroke-miterlimit="10"/></g><g transform="translate(-174,-310) scale(1,1)"><g><path fill="none" stroke="none"/><text fill="#000000" stroke="none" font-family="Arial" font-size="13px" font-style="italic" font-weight="bold" text-decoration="none" x="1053" y="347.5">Figura</text></g></g><g transform="translate(-174,-310) scale(1,1)"><g><path fill="none" stroke="none"/><text fill="#000000" stroke="none" font-family="Arial" font-size="13px" font-style="normal" font-weight="normal" text-decoration="none" x="1032.5" y="362.5">(from figuras)</text></g></g><g transform="translate(-174,-310) scale(1,1)"><g><path fill="none" stroke="none"/><text fill="#000000" stroke="none" font-family="Arial" font-size="13px" font-style="normal" font-weight="normal" text-decoration="none" x="885" y="385.5">+nombreFigura: String</text></g></g><g transform="translate(-174,-310) scale(1,1)"><g><path fill="none" stroke="none"/><text fill="#000000" stroke="none" font-family="Arial" font-size="13px" font-style="normal" font-weight="normal" text-decoration="none" x="885" y="400.5">#stroke: String</text></g></g><g transform="translate(-174,-310) scale(1,1)"><g><path fill="none" stroke="none"/><text fill="#000000" stroke="none" font-family="Arial" font-size="13px" font-style="normal" font-weight="normal" text-decoration="none" x="885" y="415.5">#fill: String</text></g></g><g transform="translate(-174,-310) scale(1,1)"><g><path fill="none" stroke="none"/><text fill="#000000" stroke="none" font-family="Arial" font-size="13px" font-style="normal" font-weight="normal" text-decoration="none" x="885" y="430.5">#strokewidth: int</text></g></g><g transform="translate(-174,-310) scale(1,1)"><g><path fill="none" stroke="none"/><text fill="#000000" stroke="none" font-family="Arial" font-size="13px" font-style="normal" font-weight="normal" text-decoration="none" x="885" y="453.5">«constructor»+Figura(nombre: String, sw: int, s: String, f: String)</text></g></g><g transform="translate(-174,-310) scale(1,1)"><g><path fill="none" stroke="none"/><text fill="#000000" stroke="none" font-family="Arial" font-size="13px" font-style="normal" font-weight="normal" text-decoration="none" x="885" y="468.5">«constructor»+Figura(nombre: String)</text></g></g><g transform="translate(-174,-310) scale(1,1)"><g><path fill="none" stroke="none"/><text fill="#000000" stroke="none" font-family="Arial" font-size="13px" font-style="normal" font-weight="normal" text-decoration="none" x="885" y="483.5">+getNombre(): String</text></g></g><g transform="translate(-174,-310) scale(1,1)"><g><path fill="none" stroke="none"/><text fill="#000000" stroke="none" font-family="Arial" font-size="13px" font-style="normal" font-weight="normal" text-decoration="none" x="885" y="498.5">+setStroke(s: String): void</text></g></g><g transform="translate(-174,-310) scale(1,1)"><g><path fill="none" stroke="none"/><text fill="#000000" stroke="none" font-family="Arial" font-size="13px" font-style="normal" font-weight="normal" text-decoration="none" x="885" y="513.5">+setStrokewidth(sw: int): void</text></g></g><g transform="translate(-174,-310) scale(1,1)"><g><path fill="none" stroke="none"/><text fill="#000000" stroke="none" font-family="Arial" font-size="13px" font-style="normal" font-weight="normal" text-decoration="none" x="885" y="528.5">+setFill(fill: String): void</text></g></g><g transform="translate(-174,-310) scale(1,1)"><g><path fill="none" stroke="none"/><text fill="#000000" stroke="none" font-family="Arial" font-size="13px" font-style="normal" font-weight="normal" text-decoration="none" x="885" y="543.5">+getStroke(): String</text></g></g><g transform="translate(-174,-310) scale(1,1)"><g><path fill="none" stroke="none"/><text fill="#000000" stroke="none" font-family="Arial" font-size="13px" font-style="normal" font-weight="normal" text-decoration="none" x="885" y="558.5">+getStrokewidth(): int</text></g></g><g transform="translate(-174,-310) scale(1,1)"><g><path fill="none" stroke="none"/><text fill="#000000" stroke="none" font-family="Arial" font-size="13px" font-style="normal" font-weight="normal" text-decoration="none" x="885" y="573.5">+getFill(): String</text></g></g><g transform="translate(-174,-310) scale(1,1)"><g><path fill="none" stroke="none"/><text fill="#000000" stroke="none" font-family="Arial" font-size="13px" font-style="normal" font-weight="normal" text-decoration="none" x="885" y="588.5">+setX1(i: int): void</text></g></g><g transform="translate(-174,-310) scale(1,1)"><rect fill="#C0C0C0" stroke="none" x="1431" y="703" width="496" height="220" opacity="0.2"/></g><g transform="translate(-174,-310) scale(1,1)"><rect fill="#ffffff" stroke="none" x="1424" y="696" width="496" height="220"/></g><g transform="translate(-174,-310) scale(1,1)"><path fill="none" stroke="#000000" d="M 1424 696 L 1920 696 L 1920 916 L 1424 916 L 1424 696 Z Z" stroke-miterlimit="10"/></g><g transform="translate(-174,-310) scale(1,1)"><path fill="none" stroke="#000000" d="M 1424 736 L 1920 736" stroke-miterlimit="10"/></g><g transform="translate(-174,-310) scale(1,1)"><path fill="none" stroke="#000000" d="M 1424 789 L 1920 789" stroke-miterlimit="10"/></g><g transform="translate(-174,-310) scale(1,1)"><g><path fill="none" stroke="none"/><text fill="#000000" stroke="none" font-family="Arial" font-size="13px" font-style="normal" font-weight="bold" text-decoration="none" x="1655.5" y="715.5">Circle</text></g></g><g transform="translate(-174,-310) scale(1,1)"><g><path fill="none" stroke="none"/><text fill="#000000" stroke="none" font-family="Arial" font-size="13px" font-style="normal" font-weight="normal" text-decoration="none" x="1633.5" y="730.5">(from figuras)</text></g></g><g transform="translate(-174,-310) scale(1,1)"><g><path fill="none" stroke="none"/><text fill="#000000" stroke="none" font-family="Arial" font-size="13px" font-style="normal" font-weight="normal" text-decoration="none" x="1429" y="753.5">~cx: int</text></g></g><g transform="translate(-174,-310) scale(1,1)"><g><path fill="none" stroke="none"/><text fill="#000000" stroke="none" font-family="Arial" font-size="13px" font-style="normal" font-weight="normal" text-decoration="none" x="1429" y="768.5">~cy: int</text></g></g><g transform="translate(-174,-310) scale(1,1)"><g><path fill="none" stroke="none"/><text fill="#000000" stroke="none" font-family="Arial" font-size="13px" font-style="normal" font-weight="normal" text-decoration="none" x="1429" y="783.5">~r: int</text></g></g><g transform="translate(-174,-310) scale(1,1)"><g><path fill="none" stroke="none"/><text fill="#000000" stroke="none" font-family="Arial" font-size="13px" font-style="normal" font-weight="normal" text-decoration="none" x="1429" y="806.5">«constructor»+Circle(cx: int, cy: int, r: int, strokewidth: int, stroke: String, fill: String)</text></g></g><g transform="translate(-174,-310) scale(1,1)"><g><path fill="none" stroke="none"/><text fill="#000000" stroke="none" font-family="Arial" font-size="13px" font-style="normal" font-weight="normal" text-decoration="none" x="1429" y="821.5">«constructor»+Circle()</text></g></g><g transform="translate(-174,-310) scale(1,1)"><g><path fill="none" stroke="none"/><text fill="#000000" stroke="none" font-family="Arial" font-size="13px" font-style="normal" font-weight="normal" text-decoration="none" x="1429" y="836.5">+setCx(cx: int): void</text></g></g><g transform="translate(-174,-310) scale(1,1)"><g><path fill="none" stroke="none"/><text fill="#000000" stroke="none" font-family="Arial" font-size="13px" font-style="normal" font-weight="normal" text-decoration="none" x="1429" y="851.5">+setCy(cy: int): void</text></g></g><g transform="translate(-174,-310) scale(1,1)"><g><path fill="none" stroke="none"/><text fill="#000000" stroke="none" font-family="Arial" font-size="13px" font-style="normal" font-weight="normal" text-decoration="none" x="1429" y="866.5">+getCx(): int</text></g></g><g transform="translate(-174,-310) scale(1,1)"><g><path fill="none" stroke="none"/><text fill="#000000" stroke="none" font-family="Arial" font-size="13px" font-style="normal" font-weight="normal" text-decoration="none" x="1429" y="881.5">+getCy(): int</text></g></g><g transform="translate(-174,-310) scale(1,1)"><g><path fill="none" stroke="none"/><text fill="#000000" stroke="none" font-family="Arial" font-size="13px" font-style="normal" font-weight="normal" text-decoration="none" x="1429" y="896.5">+getR(): int</text></g></g><g transform="translate(-174,-310) scale(1,1)"><g><path fill="none" stroke="none"/><text fill="#000000" stroke="none" font-family="Arial" font-size="13px" font-style="normal" font-weight="normal" text-decoration="none" x="1429" y="911.5">+setR(r: int): void</text></g></g><g transform="translate(-174,-310) scale(1,1)"><path fill="none" stroke="#000000" d="M 1479 695 L 1263 571" stroke-miterlimit="10"/></g><g transform="translate(-174,-310) scale(1,1)"><path fill="#FFFFFF" stroke="none" d="M 1284.8187868037871 573.8178968062871 L 1263 571 L 1276.435658165812 588.420766046631"/></g><g transform="translate(-174,-310) scale(1,1)"><path fill="none" stroke="#000000" d="M 1284.8187868037871 573.8178968062871 L 1263 571 L 1276.435658165812 588.420766046631 L 1284.8187868037871 573.8178968062871" stroke-miterlimit="10"/></g><g transform="translate(-174,-310) scale(1,1)"><rect fill="#C0C0C0" stroke="none" x="807" y="839" width="550" height="265" opacity="0.2"/></g><g transform="translate(-174,-310) scale(1,1)"><rect fill="#ffffff" stroke="none" x="800" y="832" width="550" height="265"/></g><g transform="translate(-174,-310) scale(1,1)"><path fill="none" stroke="#000000" d="M 800 832 L 1350 832 L 1350 1097 L 800 1097 L 800 832 Z Z" stroke-miterlimit="10"/></g><g transform="translate(-174,-310) scale(1,1)"><path fill="none" stroke="#000000" d="M 800 872 L 1350 872" stroke-miterlimit="10"/></g><g transform="translate(-174,-310) scale(1,1)"><path fill="none" stroke="#000000" d="M 800 940 L 1350 940" stroke-miterlimit="10"/></g><g transform="translate(-174,-310) scale(1,1)"><g><path fill="none" stroke="none"/><text fill="#000000" stroke="none" font-family="Arial" font-size="13px" font-style="normal" font-weight="bold" text-decoration="none" x="1055.5" y="851.5">Ellipse</text></g></g><g transform="translate(-174,-310) scale(1,1)"><g><path fill="none" stroke="none"/><text fill="#000000" stroke="none" font-family="Arial" font-size="13px" font-style="normal" font-weight="normal" text-decoration="none" x="1036.5" y="866.5">(from figuras)</text></g></g><g transform="translate(-174,-310) scale(1,1)"><g><path fill="none" stroke="none"/><text fill="#000000" stroke="none" font-family="Arial" font-size="13px" font-style="normal" font-weight="normal" text-decoration="none" x="805" y="889.5">~cx: int</text></g></g><g transform="translate(-174,-310) scale(1,1)"><g><path fill="none" stroke="none"/><text fill="#000000" stroke="none" font-family="Arial" font-size="13px" font-style="normal" font-weight="normal" text-decoration="none" x="805" y="904.5">~cy: int</text></g></g><g transform="translate(-174,-310) scale(1,1)"><g><path fill="none" stroke="none"/><text fill="#000000" stroke="none" font-family="Arial" font-size="13px" font-style="normal" font-weight="normal" text-decoration="none" x="805" y="919.5">~rx: int</text></g></g><g transform="translate(-174,-310) scale(1,1)"><g><path fill="none" stroke="none"/><text fill="#000000" stroke="none" font-family="Arial" font-size="13px" font-style="normal" font-weight="normal" text-decoration="none" x="805" y="934.5">~ry: int</text></g></g><g transform="translate(-174,-310) scale(1,1)"><g><path fill="none" stroke="none"/><text fill="#000000" stroke="none" font-family="Arial" font-size="13px" font-style="normal" font-weight="normal" text-decoration="none" x="805" y="957.5">«constructor»+Ellipse(cx: int, cy: int, rx: int, ry: int, strokewidth: int, stroke: String, fill: String)</text></g></g><g transform="translate(-174,-310) scale(1,1)"><g><path fill="none" stroke="none"/><text fill="#000000" stroke="none" font-family="Arial" font-size="13px" font-style="normal" font-weight="normal" text-decoration="none" x="805" y="972.5">«constructor»+Ellipse()</text></g></g><g transform="translate(-174,-310) scale(1,1)"><g><path fill="none" stroke="none"/><text fill="#000000" stroke="none" font-family="Arial" font-size="13px" font-style="normal" font-weight="normal" text-decoration="none" x="805" y="987.5">+getCx(): int</text></g></g><g transform="translate(-174,-310) scale(1,1)"><g><path fill="none" stroke="none"/><text fill="#000000" stroke="none" font-family="Arial" font-size="13px" font-style="normal" font-weight="normal" text-decoration="none" x="805" y="1002.5">+setCx(cx: int): void</text></g></g><g transform="translate(-174,-310) scale(1,1)"><g><path fill="none" stroke="none"/><text fill="#000000" stroke="none" font-family="Arial" font-size="13px" font-style="normal" font-weight="normal" text-decoration="none" x="805" y="1017.5">+getCy(): int</text></g></g><g transform="translate(-174,-310) scale(1,1)"><g><path fill="none" stroke="none"/><text fill="#000000" stroke="none" font-family="Arial" font-size="13px" font-style="normal" font-weight="normal" text-decoration="none" x="805" y="1032.5">+setCy(cy: int): void</text></g></g><g transform="translate(-174,-310) scale(1,1)"><g><path fill="none" stroke="none"/><text fill="#000000" stroke="none" font-family="Arial" font-size="13px" font-style="normal" font-weight="normal" text-decoration="none" x="805" y="1047.5">+getRx(): int</text></g></g><g transform="translate(-174,-310) scale(1,1)"><g><path fill="none" stroke="none"/><text fill="#000000" stroke="none" font-family="Arial" font-size="13px" font-style="normal" font-weight="normal" text-decoration="none" x="805" y="1062.5">+setRx(rx: int): void</text></g></g><g transform="translate(-174,-310) scale(1,1)"><g><path fill="none" stroke="none"/><text fill="#000000" stroke="none" font-family="Arial" font-size="13px" font-style="normal" font-weight="normal" text-decoration="none" x="805" y="1077.5">+getRy(): int</text></g></g><g transform="translate(-174,-310) scale(1,1)"><g><path fill="none" stroke="none"/><text fill="#000000" stroke="none" font-family="Arial" font-size="13px" font-style="normal" font-weight="normal" text-decoration="none" x="805" y="1092.5">+setRy(ry: int): void</text></g></g><g transform="translate(-174,-310) scale(1,1)"><path fill="none" stroke="#000000" d="M 1074 831 L 1072 594" stroke-miterlimit="10"/></g><g transform="translate(-174,-310) scale(1,1)"><path fill="#FFFFFF" stroke="none" d="M 1080.59025158438 614.2535818490719 L 1072 594 L 1063.7527800786181 614.3956702162092"/></g><g transform="translate(-174,-310) scale(1,1)"><path fill="none" stroke="#000000" d="M 1080.59025158438 614.2535818490719 L 1072 594 L 1063.7527800786181 614.3956702162092 L 1080.59025158438 614.2535818490719" stroke-miterlimit="10"/></g><g transform="translate(-174,-310) scale(1,1)"><rect fill="#C0C0C0" stroke="none" x="1439" y="335" width="541" height="265" opacity="0.2"/></g><g transform="translate(-174,-310) scale(1,1)"><rect fill="#ffffff" stroke="none" x="1432" y="328" width="541" height="265"/></g><g transform="translate(-174,-310) scale(1,1)"><path fill="none" stroke="#000000" d="M 1432 328 L 1973 328 L 1973 593 L 1432 593 L 1432 328 Z Z" stroke-miterlimit="10"/></g><g transform="translate(-174,-310) scale(1,1)"><path fill="none" stroke="#000000" d="M 1432 368 L 1973 368" stroke-miterlimit="10"/></g><g transform="translate(-174,-310) scale(1,1)"><path fill="none" stroke="#000000" d="M 1432 436 L 1973 436" stroke-miterlimit="10"/></g><g transform="translate(-174,-310) scale(1,1)"><g><path fill="none" stroke="none"/><text fill="#000000" stroke="none" font-family="Arial" font-size="13px" font-style="normal" font-weight="bold" text-decoration="none" x="1690.5" y="347.5">Line</text></g></g><g transform="translate(-174,-310) scale(1,1)"><g><path fill="none" stroke="none"/><text fill="#000000" stroke="none" font-family="Arial" font-size="13px" font-style="normal" font-weight="normal" text-decoration="none" x="1664" y="362.5">(from figuras)</text></g></g><g transform="translate(-174,-310) scale(1,1)"><g><path fill="none" stroke="none"/><text fill="#000000" stroke="none" font-family="Arial" font-size="13px" font-style="normal" font-weight="normal" text-decoration="none" x="1437" y="385.5">~x1: int</text></g></g><g transform="translate(-174,-310) scale(1,1)"><g><path fill="none" stroke="none"/><text fill="#000000" stroke="none" font-family="Arial" font-size="13px" font-style="normal" font-weight="normal" text-decoration="none" x="1437" y="400.5">~x2: int</text></g></g><g transform="translate(-174,-310) scale(1,1)"><g><path fill="none" stroke="none"/><text fill="#000000" stroke="none" font-family="Arial" font-size="13px" font-style="normal" font-weight="normal" text-decoration="none" x="1437" y="415.5">~y1: int</text></g></g><g transform="translate(-174,-310) scale(1,1)"><g><path fill="none" stroke="none"/><text fill="#000000" stroke="none" font-family="Arial" font-size="13px" font-style="normal" font-weight="normal" text-decoration="none" x="1437" y="430.5">~y2: int</text></g></g><g transform="translate(-174,-310) scale(1,1)"><g><path fill="none" stroke="none"/><text fill="#000000" stroke="none" font-family="Arial" font-size="13px" font-style="normal" font-weight="normal" text-decoration="none" x="1437" y="453.5">«constructor»+Line(x1: int, x2: int, y1: int, y2: int, strokewidth: int, stroke: String, fill: String)</text></g></g><g transform="translate(-174,-310) scale(1,1)"><g><path fill="none" stroke="none"/><text fill="#000000" stroke="none" font-family="Arial" font-size="13px" font-style="normal" font-weight="normal" text-decoration="none" x="1437" y="468.5">«constructor»+Line()</text></g></g><g transform="translate(-174,-310) scale(1,1)"><g><path fill="none" stroke="none"/><text fill="#000000" stroke="none" font-family="Arial" font-size="13px" font-style="normal" font-weight="normal" text-decoration="none" x="1437" y="483.5">+getX1(): int</text></g></g><g transform="translate(-174,-310) scale(1,1)"><g><path fill="none" stroke="none"/><text fill="#000000" stroke="none" font-family="Arial" font-size="13px" font-style="normal" font-weight="normal" text-decoration="none" x="1437" y="498.5">+setX1(x1: int): void</text></g></g><g transform="translate(-174,-310) scale(1,1)"><g><path fill="none" stroke="none"/><text fill="#000000" stroke="none" font-family="Arial" font-size="13px" font-style="normal" font-weight="normal" text-decoration="none" x="1437" y="513.5">+getX2(): int</text></g></g><g transform="translate(-174,-310) scale(1,1)"><g><path fill="none" stroke="none"/><text fill="#000000" stroke="none" font-family="Arial" font-size="13px" font-style="normal" font-weight="normal" text-decoration="none" x="1437" y="528.5">+setX2(x2: int): void</text></g></g><g transform="translate(-174,-310) scale(1,1)"><g><path fill="none" stroke="none"/><text fill="#000000" stroke="none" font-family="Arial" font-size="13px" font-style="normal" font-weight="normal" text-decoration="none" x="1437" y="543.5">+getY1(): int</text></g></g><g transform="translate(-174,-310) scale(1,1)"><g><path fill="none" stroke="none"/><text fill="#000000" stroke="none" font-family="Arial" font-size="13px" font-style="normal" font-weight="normal" text-decoration="none" x="1437" y="558.5">+setY1(y1: int): void</text></g></g><g transform="translate(-174,-310) scale(1,1)"><g><path fill="none" stroke="none"/><text fill="#000000" stroke="none" font-family="Arial" font-size="13px" font-style="normal" font-weight="normal" text-decoration="none" x="1437" y="573.5">+getY2(): int</text></g></g><g transform="translate(-174,-310) scale(1,1)"><g><path fill="none" stroke="none"/><text fill="#000000" stroke="none" font-family="Arial" font-size="13px" font-style="normal" font-weight="normal" text-decoration="none" x="1437" y="588.5">+setY2(y2: int): void</text></g></g><g transform="translate(-174,-310) scale(1,1)"><path fill="none" stroke="#000000" d="M 1431 460 L 1263 460" stroke-miterlimit="10"/></g><g transform="translate(-174,-310) scale(1,1)"><path fill="#FFFFFF" stroke="none" d="M 1283.3253497152482 451.580964487968 L 1263 460 L 1283.3253497152482 468.419035512032"/></g><g transform="translate(-174,-310) scale(1,1)"><path fill="none" stroke="#000000" d="M 1283.3253497152482 451.580964487968 L 1263 460 L 1283.3253497152482 468.419035512032 L 1283.3253497152482 451.580964487968" stroke-miterlimit="10"/></g><g transform="translate(-174,-310) scale(1,1)"><rect fill="#C0C0C0" stroke="none" x="343" y="863" width="388" height="160" opacity="0.2"/></g><g transform="translate(-174,-310) scale(1,1)"><rect fill="#ffffff" stroke="none" x="336" y="856" width="388" height="160"/></g><g transform="translate(-174,-310) scale(1,1)"><path fill="none" stroke="#000000" d="M 336 856 L 724 856 L 724 1016 L 336 1016 L 336 856 Z Z" stroke-miterlimit="10"/></g><g transform="translate(-174,-310) scale(1,1)"><path fill="none" stroke="#000000" d="M 336 896 L 724 896" stroke-miterlimit="10"/></g><g transform="translate(-174,-310) scale(1,1)"><path fill="none" stroke="#000000" d="M 336 919 L 724 919" stroke-miterlimit="10"/></g><g transform="translate(-174,-310) scale(1,1)"><g><path fill="none" stroke="none"/><text fill="#000000" stroke="none" font-family="Arial" font-size="13px" font-style="normal" font-weight="bold" text-decoration="none" x="506.5" y="875.5">Polygon</text></g></g><g transform="translate(-174,-310) scale(1,1)"><g><path fill="none" stroke="none"/><text fill="#000000" stroke="none" font-family="Arial" font-size="13px" font-style="normal" font-weight="normal" text-decoration="none" x="491.5" y="890.5">(from figuras)</text></g></g><g transform="translate(-174,-310) scale(1,1)"><g><path fill="none" stroke="none"/><text fill="#000000" stroke="none" font-family="Arial" font-size="13px" font-style="normal" font-weight="normal" text-decoration="none" x="341" y="913.5">~points: LinkedList</text></g></g><g transform="translate(-174,-310) scale(1,1)"><g><path fill="none" stroke="none"/><text fill="#000000" stroke="none" font-family="Arial" font-size="13px" font-style="normal" font-weight="normal" text-decoration="none" x="341" y="936.5">«constructor»+Polygon(strokewidth: int, stroke: String, fill: String)</text></g></g><g transform="translate(-174,-310) scale(1,1)"><g><path fill="none" stroke="none"/><text fill="#000000" stroke="none" font-family="Arial" font-size="13px" font-style="normal" font-weight="normal" text-decoration="none" x="341" y="951.5">«constructor»+Polygon()</text></g></g><g transform="translate(-174,-310) scale(1,1)"><g><path fill="none" stroke="none"/><text fill="#000000" stroke="none" font-family="Arial" font-size="13px" font-style="normal" font-weight="normal" text-decoration="none" x="341" y="966.5">+getPoints(): LinkedList</text></g></g><g transform="translate(-174,-310) scale(1,1)"><g><path fill="none" stroke="none"/><text fill="#000000" stroke="none" font-family="Arial" font-size="13px" font-style="normal" font-weight="normal" text-decoration="none" x="341" y="981.5">+setPoints(points: LinkedList): void</text></g></g><g transform="translate(-174,-310) scale(1,1)"><g><path fill="none" stroke="none"/><text fill="#000000" stroke="none" font-family="Arial" font-size="13px" font-style="normal" font-weight="normal" text-decoration="none" x="341" y="996.5">+addPoint(arr: int[*]): void</text></g></g><g transform="translate(-174,-310) scale(1,1)"><g><path fill="none" stroke="none"/><text fill="#000000" stroke="none" font-family="Arial" font-size="13px" font-style="normal" font-weight="normal" text-decoration="none" x="341" y="1011.5">+getX1(): int</text></g></g><g transform="translate(-174,-310) scale(1,1)"><path fill="none" stroke="#000000" d="M 622 855 L 919 594" stroke-miterlimit="10"/></g><g transform="translate(-174,-310) scale(1,1)"><path fill="#FFFFFF" stroke="none" d="M 909.2898390696661 613.7411442096708 L 919 594 L 898.1747824207085 601.0929762987879"/></g><g transform="translate(-174,-310) scale(1,1)"><path fill="none" stroke="#000000" d="M 909.2898390696661 613.7411442096708 L 919 594 L 898.1747824207085 601.0929762987879 L 909.2898390696661 613.7411442096708" stroke-miterlimit="10"/></g><g transform="translate(-174,-310) scale(1,1)"><rect fill="#C0C0C0" stroke="none" x="263" y="663" width="387" height="145" opacity="0.2"/></g><g transform="translate(-174,-310) scale(1,1)"><rect fill="#ffffff" stroke="none" x="256" y="656" width="387" height="145"/></g><g transform="translate(-174,-310) scale(1,1)"><path fill="none" stroke="#000000" d="M 256 656 L 643 656 L 643 801 L 256 801 L 256 656 Z Z" stroke-miterlimit="10"/></g><g transform="translate(-174,-310) scale(1,1)"><path fill="none" stroke="#000000" d="M 256 696 L 643 696" stroke-miterlimit="10"/></g><g transform="translate(-174,-310) scale(1,1)"><path fill="none" stroke="#000000" d="M 256 719 L 643 719" stroke-miterlimit="10"/></g><g transform="translate(-174,-310) scale(1,1)"><g><path fill="none" stroke="none"/><text fill="#000000" stroke="none" font-family="Arial" font-size="13px" font-style="normal" font-weight="bold" text-decoration="none" x="426.5" y="675.5">Polyline</text></g></g><g transform="translate(-174,-310) scale(1,1)"><g><path fill="none" stroke="none"/><text fill="#000000" stroke="none" font-family="Arial" font-size="13px" font-style="normal" font-weight="normal" text-decoration="none" x="411" y="690.5">(from figuras)</text></g></g><g transform="translate(-174,-310) scale(1,1)"><g><path fill="none" stroke="none"/><text fill="#000000" stroke="none" font-family="Arial" font-size="13px" font-style="normal" font-weight="normal" text-decoration="none" x="261" y="713.5">~points: LinkedList</text></g></g><g transform="translate(-174,-310) scale(1,1)"><g><path fill="none" stroke="none"/><text fill="#000000" stroke="none" font-family="Arial" font-size="13px" font-style="normal" font-weight="normal" text-decoration="none" x="261" y="736.5">«constructor»+Polyline(strokewidth: int, stroke: String, fill: String)</text></g></g><g transform="translate(-174,-310) scale(1,1)"><g><path fill="none" stroke="none"/><text fill="#000000" stroke="none" font-family="Arial" font-size="13px" font-style="normal" font-weight="normal" text-decoration="none" x="261" y="751.5">«constructor»+Polyline()</text></g></g><g transform="translate(-174,-310) scale(1,1)"><g><path fill="none" stroke="none"/><text fill="#000000" stroke="none" font-family="Arial" font-size="13px" font-style="normal" font-weight="normal" text-decoration="none" x="261" y="766.5">+getPoints(): LinkedList</text></g></g><g transform="translate(-174,-310) scale(1,1)"><g><path fill="none" stroke="none"/><text fill="#000000" stroke="none" font-family="Arial" font-size="13px" font-style="normal" font-weight="normal" text-decoration="none" x="261" y="781.5">+setPoints(points: LinkedList): void</text></g></g><g transform="translate(-174,-310) scale(1,1)"><g><path fill="none" stroke="none"/><text fill="#000000" stroke="none" font-family="Arial" font-size="13px" font-style="normal" font-weight="normal" text-decoration="none" x="261" y="796.5">+addPoint(arr: int[*]): void</text></g></g><g transform="translate(-174,-310) scale(1,1)"><path fill="none" stroke="#000000" d="M 618 655 L 879 543" stroke-miterlimit="10"/></g><g transform="translate(-174,-310) scale(1,1)"><path fill="#FFFFFF" stroke="none" d="M 863.6417572088666 558.7519642701665 L 879 543 L 857.0017616228373 543.2784031277231"/></g><g transform="translate(-174,-310) scale(1,1)"><path fill="none" stroke="#000000" d="M 863.6417572088666 558.7519642701665 L 879 543 L 857.0017616228373 543.2784031277231 L 863.6417572088666 558.7519642701665" stroke-miterlimit="10"/></g><g transform="translate(-174,-310) scale(1,1)"><rect fill="#C0C0C0" stroke="none" x="191" y="327" width="549" height="265" opacity="0.2"/></g><g transform="translate(-174,-310) scale(1,1)"><rect fill="#ffffff" stroke="none" x="184" y="320" width="549" height="265"/></g><g transform="translate(-174,-310) scale(1,1)"><path fill="none" stroke="#000000" d="M 184 320 L 733 320 L 733 585 L 184 585 L 184 320 Z Z" stroke-miterlimit="10"/></g><g transform="translate(-174,-310) scale(1,1)"><path fill="none" stroke="#000000" d="M 184 360 L 733 360" stroke-miterlimit="10"/></g><g transform="translate(-174,-310) scale(1,1)"><path fill="none" stroke="#000000" d="M 184 428 L 733 428" stroke-miterlimit="10"/></g><g transform="translate(-174,-310) scale(1,1)"><g><path fill="none" stroke="none"/><text fill="#000000" stroke="none" font-family="Arial" font-size="13px" font-style="normal" font-weight="bold" text-decoration="none" x="429.5" y="339.5">Rectangle</text></g></g><g transform="translate(-174,-310) scale(1,1)"><g><path fill="none" stroke="none"/><text fill="#000000" stroke="none" font-family="Arial" font-size="13px" font-style="normal" font-weight="normal" text-decoration="none" x="420" y="354.5">(from figuras)</text></g></g><g transform="translate(-174,-310) scale(1,1)"><g><path fill="none" stroke="none"/><text fill="#000000" stroke="none" font-family="Arial" font-size="13px" font-style="normal" font-weight="normal" text-decoration="none" x="189" y="377.5">~x: int</text></g></g><g transform="translate(-174,-310) scale(1,1)"><g><path fill="none" stroke="none"/><text fill="#000000" stroke="none" font-family="Arial" font-size="13px" font-style="normal" font-weight="normal" text-decoration="none" x="189" y="392.5">~y: int</text></g></g><g transform="translate(-174,-310) scale(1,1)"><g><path fill="none" stroke="none"/><text fill="#000000" stroke="none" font-family="Arial" font-size="13px" font-style="normal" font-weight="normal" text-decoration="none" x="189" y="407.5">~width: int</text></g></g><g transform="translate(-174,-310) scale(1,1)"><g><path fill="none" stroke="none"/><text fill="#000000" stroke="none" font-family="Arial" font-size="13px" font-style="normal" font-weight="normal" text-decoration="none" x="189" y="422.5">~height: int</text></g></g><g transform="translate(-174,-310) scale(1,1)"><g><path fill="none" stroke="none"/><text fill="#000000" stroke="none" font-family="Arial" font-size="13px" font-style="normal" font-weight="normal" text-decoration="none" x="189" y="445.5">«constructor»+Rectangle(x: int, y: int, w: int, h: int, strokewidth: int, stroke: String, fill: String)</text></g></g><g transform="translate(-174,-310) scale(1,1)"><g><path fill="none" stroke="none"/><text fill="#000000" stroke="none" font-family="Arial" font-size="13px" font-style="normal" font-weight="normal" text-decoration="none" x="189" y="460.5">«constructor»+Rectangle()</text></g></g><g transform="translate(-174,-310) scale(1,1)"><g><path fill="none" stroke="none"/><text fill="#000000" stroke="none" font-family="Arial" font-size="13px" font-style="normal" font-weight="normal" text-decoration="none" x="189" y="475.5">+getX(): int</text></g></g><g transform="translate(-174,-310) scale(1,1)"><g><path fill="none" stroke="none"/><text fill="#000000" stroke="none" font-family="Arial" font-size="13px" font-style="normal" font-weight="normal" text-decoration="none" x="189" y="490.5">+setX(x: int): void</text></g></g><g transform="translate(-174,-310) scale(1,1)"><g><path fill="none" stroke="none"/><text fill="#000000" stroke="none" font-family="Arial" font-size="13px" font-style="normal" font-weight="normal" text-decoration="none" x="189" y="505.5">+getY(): int</text></g></g><g transform="translate(-174,-310) scale(1,1)"><g><path fill="none" stroke="none"/><text fill="#000000" stroke="none" font-family="Arial" font-size="13px" font-style="normal" font-weight="normal" text-decoration="none" x="189" y="520.5">+setY(y: int): void</text></g></g><g transform="translate(-174,-310) scale(1,1)"><g><path fill="none" stroke="none"/><text fill="#000000" stroke="none" font-family="Arial" font-size="13px" font-style="normal" font-weight="normal" text-decoration="none" x="189" y="535.5">+getWidth(): int</text></g></g><g transform="translate(-174,-310) scale(1,1)"><g><path fill="none" stroke="none"/><text fill="#000000" stroke="none" font-family="Arial" font-size="13px" font-style="normal" font-weight="normal" text-decoration="none" x="189" y="550.5">+setWidth(width: int): void</text></g></g><g transform="translate(-174,-310) scale(1,1)"><g><path fill="none" stroke="none"/><text fill="#000000" stroke="none" font-family="Arial" font-size="13px" font-style="normal" font-weight="normal" text-decoration="none" x="189" y="565.5">+getHeight(): int</text></g></g><g transform="translate(-174,-310) scale(1,1)"><g><path fill="none" stroke="none"/><text fill="#000000" stroke="none" font-family="Arial" font-size="13px" font-style="normal" font-weight="normal" text-decoration="none" x="189" y="580.5">+setHeight(height: int): void</text></g></g><g transform="translate(-174,-310) scale(1,1)"><path fill="none" stroke="#000000" d="M 734 456 L 879 457" stroke-miterlimit="10"/></g><g transform="translate(-174,-310) scale(1,1)"><path fill="#FFFFFF" stroke="none" d="M 858.6170726958445 465.27866381208435 L 879 457 L 858.7331945621107 448.4409932034878"/></g><g transform="translate(-174,-310) scale(1,1)"><path fill="none" stroke="#000000" d="M 858.6170726958445 465.27866381208435 L 879 457 L 858.7331945621107 448.4409932034878 L 858.6170726958445 465.27866381208435" stroke-miterlimit="10"/></g></g></svg>